# Blender v2.69 (sub 0) OBJ File: ''
# www.blender.org
v 1.000000 -1.000000 -1.000000
v 1.000000 -1.000000 1.000000
v -1.000000 -1.000000 1.000000
v -1.000000 -1.000000 -1.000000
v 1.000000 1.000000 -0.999999
v 0.999999 1.000000 1.000001
v -1.000000 1.000000 1.000000
v -1.000000 1.000000 -1.000000
vt 0.667968 0.000006
vt 0.667966 0.249992
vt 0.332075 0.000014
vt 0.666744 0.750097
vt 0.334567 0.750276
vt 0.666656 0.500136
vt 1.000052 0.500001
vt 1.000004 0.753902
vt 0.668073 0.500015
vt 0.667955 0.249952
vt 0.668035 0.500005
vt 0.332115 0.249938
vt 0.000012 0.500028
vt 0.000026 0.753872
vt 0.332030 0.500036
vt 0.667922 0.999983
vt 0.668104 0.750721
vt 0.332557 0.999785
vt 0.332075 0.249942
vt 0.334066 0.500146
vt 0.666080 0.753917
vt 0.332130 0.499993
vt 0.332033 0.753916
vt 0.332755 0.750705
vn 0.000000 -1.000000 0.000000
vn 0.000000 1.000000 0.000000
vn 1.000000 -0.000000 0.000000
vn 0.000000 -0.000000 1.000000
vn -1.000000 -0.000000 -0.000000
vn 0.000000 0.000000 -1.000000
vn 1.000000 0.000000 0.000001
s off
f 1/1/1 2/2/1 4/3/1
f 5/4/2 8/5/2 6/6/2
f 1/7/3 5/8/3 2/9/3
f 2/10/4 6/11/4 3/12/4
f 3/13/5 7/14/5 4/15/5
f 5/16/6 1/17/6 8/18/6
f 2/2/1 3/19/1 4/3/1
f 8/5/2 7/20/2 6/6/2
f 5/8/7 6/21/7 2/9/7
f 6/11/4 7/22/4 3/12/4
f 7/14/5 8/23/5 4/15/5
f 1/17/6 4/24/6 8/18/6
