# Blender v2.66 (sub 1) OBJ File: ''
# www.blender.org
o Sphere_Sphere
v 0.000000 0.428747 0.000000
v -0.303170 0.303170 0.000000
v -0.428747 -0.000000 0.000000
v -0.303170 -0.303170 0.000000
v 0.000000 -0.428747 0.000000
v 0.000000 0.303170 -0.303170
v 0.000000 -0.000000 -0.428747
v 0.000000 -0.303170 -0.303170
v 0.303170 0.303170 -0.000000
v 0.428747 -0.000000 -0.000000
v 0.303170 -0.303170 -0.000000
v 0.000000 0.303170 0.303170
v 0.000000 -0.000000 0.428747
v 0.000000 -0.303170 0.303170
vn -1.000000 0.000000 0.000000
vn -0.777795 0.628498 0.000000
vn 0.000000 0.000000 -1.000000
vn -0.777795 -0.628498 0.000000
vn 0.000000 -0.628498 -0.777795
vn 0.000000 0.628498 -0.777795
vn 0.777795 0.628498 0.000000
vn 1.000000 0.000000 0.000000
vn 0.000000 0.628498 0.777795
vn 0.777795 -0.628498 0.000000
vn 0.000000 0.000000 0.999969
vn 0.000000 -1.000000 0.000000
vn 0.000000 1.000000 0.000000
vn 0.000000 -0.628498 0.777795
s 1
f 3//1 2//2 7//3
f 4//4 3//1 8//5
f 7//3 6//6 9//7
f 8//5 7//3 10//8
f 10//8 9//7 12//9
f 11//10 10//8 13//11
f 5//12 4//4 8//5
f 2//2 1//13 6//6
f 5//12 8//5 11//10
f 6//6 1//13 9//7
f 5//12 11//10 14//14
f 9//7 1//13 12//9
f 13//11 12//9 3//1
f 14//14 13//11 4//4
f 5//12 14//14 4//4
f 12//9 1//13 2//2
f 2//2 6//6 7//3
f 3//1 7//3 8//5
f 10//8 7//3 9//7
f 11//10 8//5 10//8
f 13//11 10//8 12//9
f 14//14 11//10 13//11
f 12//9 2//2 3//1
f 13//11 3//1 4//4
