# Blender v2.69 (sub 0) OBJ File: ''
# www.blender.org
v -0.802655 -0.802655 -0.802655
v 0.802655 -0.802655 -0.802655
v 0.802655 -0.802655 0.802655
v -0.802655 -0.802655 0.802655
v -0.802655 0.802655 -0.802655
v 0.802656 0.802655 -0.802654
v 0.802655 0.802655 0.802655
v -0.802655 0.802655 0.802655
vn 0.000000 1.000000 0.000000
vn 0.000000 -1.000000 0.000000
vn -1.000000 0.000000 -0.000000
vn 0.000000 0.000000 -1.000000
vn 1.000000 -0.000000 0.000000
vn -1.000000 0.000000 -0.000001
s off
f 1//1 4//1 2//1
f 5//2 6//2 8//2
f 2//3 3//3 6//3
f 3//4 4//4 7//4
f 5//5 8//5 1//5
f 4//1 3//1 2//1
f 6//2 7//2 8//2
f 3//6 7//6 6//6
f 4//4 8//4 7//4
f 8//5 4//5 1//5
